<?xml version="1.0" standalone="no"?>
<!DOCTYPE svg PUBLIC "-//W3C//DTD SVG 20010904//EN"
 "http://www.w3.org/TR/2001/REC-SVG-20010904/DTD/svg10.dtd">
<svg version="1.0" xmlns="http://www.w3.org/2000/svg"
 width="391.000000pt" height="391.000000pt" viewBox="0 0 391.000000 391.000000"
 preserveAspectRatio="xMidYMid meet">
<metadata>
Created by potrace 1.14, written by Peter Selinger 2001-2017
</metadata>
<g transform="translate(0.000000,391.000000) scale(0.100000,-0.100000)"
fill="#000000" stroke="none">
<path d="M1788 3635 c-2 -2 -27 -6 -56 -9 -188 -21 -455 -114 -635 -222 -129
-78 -222 -152 -341 -271 l-82 -82 -285 0 c-156 0 -289 0 -296 -1 -6 0 -25 -12
-42 -26 -30 -25 -31 -29 -31 -104 0 -69 3 -82 24 -107 23 -27 29 -28 125 -31
l101 -4 0 -592 c0 -623 1 -631 46 -692 13 -18 33 -60 45 -95 25 -73 47 -125
96 -224 147 -296 414 -569 715 -728 59 -31 232 -105 262 -112 6 -1 18 -5 26
-8 16 -6 62 -16 70 -16 3 0 17 -4 32 -10 98 -37 403 -58 583 -39 166 16 380
78 544 156 50 24 69 28 90 21 14 -4 262 -7 549 -6 l524 2 24 28 c20 24 24 39
24 99 0 77 -19 123 -54 132 -12 3 -60 6 -108 6 l-88 0 -1 678 c-1 372 -2 688
-4 702 -7 75 -16 147 -20 160 -2 8 -7 31 -10 50 -3 19 -13 60 -21 90 -133 482
-448 867 -889 1087 -55 27 -109 52 -120 55 -11 4 -43 15 -70 25 -69 27 -202
59 -310 77 -76 12 -407 21 -417 11z"/>
</g>
</svg>
