<?xml version="1.0" encoding="UTF-8"?><svg xmlns="http://www.w3.org/2000/svg" xmlns:xlink="http://www.w3.org/1999/xlink" fill-opacity="1" color-rendering="auto" color-interpolation="auto" text-rendering="auto" stroke="black" stroke-linecap="square" width="161" stroke-miterlimit="10" shape-rendering="auto" stroke-opacity="1" fill="black" stroke-dasharray="none" font-weight="normal" stroke-width="1" height="161" font-family="'Dialog'" font-style="normal" stroke-linejoin="miter" font-size="12px" stroke-dashoffset="0" image-rendering="auto">
  <!--Generated by ySVG 2.5-->
  <defs id="genericDefs"/>
  <g>
    <defs id="defs1">
      <clipPath clipPathUnits="userSpaceOnUse" id="clipPath1">
        <path d="M0 0 L161 0 L161 161 L0 161 L0 0 Z"/>
      </clipPath>
      <clipPath clipPathUnits="userSpaceOnUse" id="clipPath2">
        <path d="M1283 -118 L1444 -118 L1444 43 L1283 43 L1283 -118 Z"/>
      </clipPath>
    </defs>
    <g fill="rgb(208,0,0)" text-rendering="geometricPrecision" shape-rendering="geometricPrecision" transform="matrix(1,0,0,1,-1283,118)" stroke="rgb(208,0,0)">
      <rect x="1298.3296" y="-102.828" clip-path="url(#clipPath2)" width="130.2029" rx="4" ry="4" height="130.2029" stroke="none"/>
    </g>
    <g stroke-linecap="butt" transform="matrix(1,0,0,1,-1283,118)" fill="rgb(208,0,0)" text-rendering="geometricPrecision" shape-rendering="geometricPrecision" stroke="rgb(208,0,0)" stroke-miterlimit="1.45">
      <rect x="1298.3296" y="-102.828" clip-path="url(#clipPath2)" fill="none" width="130.2029" rx="4" ry="4" height="130.2029"/>
    </g>
    <g fill="rgb(244,244,243)" text-rendering="geometricPrecision" shape-rendering="geometricPrecision" transform="matrix(1,0,0,1,-1283,118)" stroke="rgb(244,244,243)">
      <rect x="1308.431" y="-92.7266" clip-path="url(#clipPath2)" width="110" rx="4" ry="4" height="110" stroke="none"/>
    </g>
    <g stroke-linecap="butt" transform="matrix(1,0,0,1,-1283,118)" fill="rgb(208,0,0)" text-rendering="geometricPrecision" shape-rendering="geometricPrecision" stroke="rgb(208,0,0)" stroke-miterlimit="1.45">
      <rect x="1308.431" y="-92.7266" clip-path="url(#clipPath2)" fill="none" width="110" rx="4" ry="4" height="110"/>
      <rect stroke-linecap="square" x="1308.431" y="-92.7266" clip-path="url(#clipPath2)" width="80" height="80" stroke="none" stroke-miterlimit="10"/>
      <rect fill="none" x="1308.431" width="80" height="80" y="-92.7266" clip-path="url(#clipPath2)"/>
    </g>
    <g fill="rgb(244,244,243)" text-rendering="geometricPrecision" shape-rendering="geometricPrecision" transform="matrix(1,0,0,1,-1283,118)" stroke="rgb(244,244,243)">
      <rect x="1308.431" width="70" height="70" y="-92.7266" clip-path="url(#clipPath2)" stroke="none"/>
    </g>
    <g stroke-linecap="butt" transform="matrix(1,0,0,1,-1283,118)" fill="rgb(208,0,0)" text-rendering="geometricPrecision" shape-rendering="geometricPrecision" stroke="rgb(208,0,0)" stroke-miterlimit="1.45">
      <rect fill="none" x="1308.431" width="70" height="70" y="-92.7266" clip-path="url(#clipPath2)"/>
      <rect stroke-linecap="square" x="1308.431" y="-92.7266" clip-path="url(#clipPath2)" width="40" height="40" stroke="none" stroke-miterlimit="10"/>
      <rect fill="none" x="1308.431" width="40" height="40" y="-92.7266" clip-path="url(#clipPath2)"/>
    </g>
    <g fill="rgb(244,244,243)" text-rendering="geometricPrecision" shape-rendering="geometricPrecision" transform="matrix(1,0,0,1,-1283,118)" stroke="rgb(244,244,243)">
      <rect x="1308.431" width="30" height="30" y="-92.7266" clip-path="url(#clipPath2)" stroke="none"/>
    </g>
    <g stroke-linecap="butt" transform="matrix(1,0,0,1,-1283,118)" fill="rgb(208,0,0)" text-rendering="geometricPrecision" shape-rendering="geometricPrecision" stroke="rgb(208,0,0)" stroke-miterlimit="1.45">
      <rect fill="none" x="1308.431" width="30" height="30" y="-92.7266" clip-path="url(#clipPath2)"/>
    </g>
  </g>
</svg>
